# xmcd
#
# Track frame offsets: 
#        150
#        12927
#        24847
#        38332
#        49630
#        67017
#        83545
#        97165
#        108607
#        119837
#
# Disc length: 1775 seconds
#
# Revision: 3
# Processed by: cddbd v1.5.2PL0 Copyright (c) Steve Scherf et al.
# Submitted via: ExactAudioCopyFreeDBPlugin 1.0
#
DISCID=7906ed0a
DTITLE=El Super Grupo Los Bybys - Corazón Barato
DYEAR=1994
DGENRE=Cachaca
TTITLE0=Llorar, llorar, llorar
TTITLE1=Estoy llorando por ella
TTITLE2=Si tu me dejas
TTITLE3=Entrégate
TTITLE4=Márchate ya
TTITLE5=Esa mujer
TTITLE6=Corazón barato
TTITLE7=Ya no hay amor
TTITLE8=Desde que llegaste tu
TTITLE9=Por qué te vas
EXTD=
EXTT0=
EXTT1=
EXTT2=
EXTT3=
EXTT4=
EXTT5=
EXTT6=
EXTT7=
EXTT8=
EXTT9=
PLAYORDER=
